<?xml version="1.0" standalone="no"?>
<!DOCTYPE svg PUBLIC "-//W3C//DTD SVG 20010904//EN"
 "http://www.w3.org/TR/2001/REC-SVG-20010904/DTD/svg10.dtd">
<svg version="1.0" xmlns="http://www.w3.org/2000/svg"
 width="200.000000pt" height="200.000000pt" viewBox="0 0 200.000000 200.000000"
 preserveAspectRatio="xMidYMid meet">
<metadata>
Created by potrace 1.11, written by Peter Selinger 2001-2013
</metadata>
<g transform="translate(0.000000,200.000000) scale(0.100000,-0.100000)"
fill="#000000" stroke="none">
<path d="M1260 1994 c-14 -2 -59 -9 -100 -15 -296 -42 -650 -195 -848 -368
l-34 -29 34 -10 c94 -30 102 -29 170 32 73 67 221 142 353 181 68 20 121 28
215 32 148 6 236 -9 322 -57 49 -26 58 -36 64 -66 3 -19 4 -45 2 -59 -3 -14
-3 -25 -1 -25 3 0 39 18 82 40 88 46 224 150 264 203 l27 36 -43 25 c-98 58
-233 87 -389 85 -51 -1 -104 -3 -118 -5z"/>
<path d="M1774 1776 c-39 -40 -99 -95 -135 -121 -76 -57 -239 -137 -327 -161
-43 -12 -59 -20 -50 -27 9 -6 5 -7 -11 -3 -14 3 -45 2 -70 -1 -39 -6 -42 -8
-21 -13 22 -6 19 -8 -25 -19 -27 -7 -66 -13 -85 -13 -49 1 -35 -3 140 -38 85
-17 206 -44 268 -61 l112 -31 38 28 c67 50 216 208 249 264 18 30 38 76 44
102 11 40 10 52 -5 85 -9 21 -25 48 -34 60 l-17 23 -71 -74z"/>
<path d="M1931 1522 c-21 -45 -94 -142 -164 -217 l-65 -71 49 -28 c27 -15 76
-52 108 -82 l59 -54 17 87 c20 103 33 377 18 386 -6 4 -16 -6 -22 -21z"/>
<path d="M145 1425 c-103 -156 -129 -323 -75 -485 24 -73 47 -102 105 -133 36
-20 55 -22 190 -21 137 0 161 3 268 32 149 40 311 103 469 183 117 58 281 151
322 181 18 14 17 15 -10 26 -55 22 -271 81 -392 106 -133 28 -143 30 -124 18
14 -9 -60 -95 -242 -281 -84 -86 -114 -110 -181 -142 -64 -32 -86 -38 -115
-33 -83 15 -125 109 -121 272 2 70 48 219 82 265 11 16 19 30 17 32 -3 3 -142
35 -152 35 -2 0 -21 -25 -41 -55z"/>
<path d="M1088 1443 c6 -2 18 -2 25 0 6 3 1 5 -13 5 -14 0 -19 -2 -12 -5z"/>
<path d="M1463 1036 c-380 -288 -802 -458 -1098 -443 -55 2 -108 8 -118 12
-16 7 -15 3 5 -31 34 -60 157 -176 223 -211 235 -124 574 -103 900 56 273 133
460 332 441 468 -8 60 -45 123 -99 166 -49 41 -108 77 -122 76 -5 0 -65 -42
-132 -93z"/>
<path d="M1670 542 c-144 -138 -386 -260 -620 -313 -176 -39 -391 -32 -508 17
l-37 15 35 -36 c98 -102 261 -194 381 -216 131 -23 275 19 423 125 75 53 216
198 278 286 47 67 111 171 106 174 -2 0 -28 -23 -58 -52z"/>
</g>
</svg>
